<?xml version="1.0" encoding="UTF-8"?>
<svg id="Layer_1" data-name="Layer 1" xmlns="http://www.w3.org/2000/svg" xmlns:xlink="http://www.w3.org/1999/xlink" viewBox="0 0 426.2 98.33">
  <defs>
    <style>
      .cls-1 {
        fill: url(#linear-gradient);
      }

      .cls-1, .cls-2, .cls-3, .cls-4 {
        stroke-width: 0px;
      }

      .cls-2 {
        fill: url(#linear-gradient-2);
      }

      .cls-3 {
        fill: #d8cd7d;
      }

      .cls-4 {
        fill: #9fd0c4;
      }
    </style>
    <linearGradient id="linear-gradient" x1="172.75" y1="60.76" x2="213.14" y2="60.76" gradientUnits="userSpaceOnUse">
      <stop offset="0" stop-color="#d7cd7c"/>
      <stop offset=".92" stop-color="#9fd0c4"/>
    </linearGradient>
    <linearGradient id="linear-gradient-2" x1="237.98" y1="61.33" x2="272.41" y2="61.33" gradientUnits="userSpaceOnUse">
      <stop offset=".02" stop-color="#9fd0c4"/>
      <stop offset="1" stop-color="#d7cd7c"/>
    </linearGradient>
  </defs>
  <path class="cls-3" d="m56.35,55.35c0,3.99-.66,7.47-1.98,10.44s-3.08,5.44-5.27,7.42c-2.19,1.97-4.7,3.44-7.51,4.39-2.82.95-5.73,1.41-8.72,1.37-2.99.04-5.9-.41-8.72-1.37-2.82-.95-5.32-2.42-7.51-4.39s-3.95-4.45-5.27-7.42-1.98-6.45-1.98-10.44.66-7.47,1.98-10.44c1.32-2.97,3.08-5.44,5.27-7.42,2.19-1.97,4.69-3.44,7.51-4.39s5.72-1.41,8.72-1.37c2.99-.04,5.9.41,8.72,1.37,2.82.95,5.32,2.42,7.51,4.39,2.19,1.97,3.95,4.45,5.27,7.42,1.32,2.97,1.98,6.45,1.98,10.44Zm-16-11.25c0-1.52-.37-2.8-1.11-3.84s-1.67-1.81-2.8-2.31-2.34-.75-3.64-.75-2.52.25-3.64.75c-1.13.5-2.06,1.27-2.8,2.31s-1.11,2.32-1.11,3.84v22.44c0,1.52.37,2.8,1.11,3.84.74,1.04,1.67,1.82,2.8,2.34s2.34.78,3.64.78,2.51-.26,3.64-.78,2.06-1.29,2.8-2.31c.74-1.02,1.11-2.31,1.11-3.87v-22.44h0Z"/>
  <path class="cls-3" d="m80.68,52.03c-.22-.52-.59-.87-1.11-1.04-.52-.17-1.04-.15-1.56.06-.43.22-.81.53-1.14.94s-.6.88-.81,1.4c-.22.52-.38,1.03-.49,1.53s-.16.92-.16,1.27v14.77c0,.22.08.52.23.91.15.39.33.79.52,1.2s.4.82.62,1.24c.22.41.39.75.52,1.01.35.65.35,1.3,0,1.95-.35.65-.87.98-1.56.98h-13.92c-.69,0-1.21-.32-1.56-.98-.35-.65-.35-1.3,0-1.95.13-.26.3-.6.52-1.01s.42-.82.62-1.24.37-.81.52-1.2.23-.69.23-.91v-19.52c0-.22-.08-.52-.23-.91s-.33-.79-.52-1.2c-.2-.41-.4-.82-.62-1.24-.22-.41-.39-.75-.52-1.01-.35-.65-.35-1.3,0-1.95s.87-.98,1.56-.98h11.19c.69.04,1.28.3,1.76.78s.72,1.06.72,1.76c1.39-.87,2.93-1.63,4.62-2.28,1.69-.65,3.36-.93,5.01-.85.78.04,1.55.23,2.31.55.76.33,1.43.75,2.02,1.27s1.05,1.14,1.4,1.85c.35.72.52,1.51.52,2.37,0,1.52-.45,2.73-1.33,3.64-.89.91-1.92,1.5-3.09,1.76s-2.35.14-3.55-.36c-1.19-.5-2.09-1.44-2.7-2.83v.2l-.02.02h0Z"/>
  <path class="cls-3" d="m101.37,90.02c-1.39,0-2.61-.25-3.68-.75-1.06-.5-1.95-1.14-2.67-1.92s-1.27-1.68-1.66-2.7c-.39-1.02-.61-2.05-.65-3.09-.04-1.3.16-2.6.62-3.9s1.07-2.54,1.85-3.71c1.17-1.78,2.69-3.32,4.55-4.62-1.65-1.26-2.99-2.81-4.03-4.65-1.04-1.84-1.56-3.96-1.56-6.34,0-2.86.68-5.31,2.05-7.35,1.37-2.04,3.11-3.65,5.24-4.85,2.12-1.19,4.48-1.98,7.06-2.37,2.58-.39,5.11-.37,7.58.06.26.09.54.14.85.16.3.02.56,0,.78-.07.22-.06.4-.21.55-.42.15-.22.23-.54.23-.98,0-.26-.01-.6-.03-1.01s0-.8.07-1.17c.06-.37.17-.69.32-.98.15-.28.42-.42.81-.42h6.57c.52,0,1.01,0,1.46-.03.46-.02.87,0,1.24.06.37.06.65.21.85.42.2.22.29.56.29,1.04,0,.35,0,.75.03,1.2.02.46,0,.9-.03,1.33-.04.43-.14.81-.29,1.14-.15.33-.38.53-.68.62l-5.86,1.69c1.95,1.26,3.55,2.86,4.78,4.81s1.85,4.29,1.85,7.03c0,2.3-.48,4.34-1.43,6.12-.95,1.78-2.21,3.29-3.77,4.52s-3.34,2.2-5.33,2.9c-2,.69-4.01,1.11-6.05,1.24h-9.82c-.56,0-.99.24-1.27.72s-.42,1.01-.42,1.59.14,1.12.42,1.59c.28.48.7.72,1.27.72h19.06c1.17,0,2.23.26,3.19.78.95.52,1.78,1.21,2.47,2.08.78,1,1.36,2.18,1.72,3.55.37,1.37.44,2.77.23,4.2-.09.65-.22,1.3-.39,1.95-.35.43-.79.69-1.33.78-.54.09-1.12-.06-1.72-.45-.3-.22-.6-.39-.88-.52s-.6-.2-.94-.2l-23.49.2h-.01Zm10.54-22.05c1.34,0,2.48-.48,3.42-1.43.93-.95,1.4-2.1,1.4-3.45v-9.56c0-.95-.23-1.8-.68-2.54-.46-.74-1.04-1.3-1.76-1.69s-1.5-.6-2.34-.62c-.85-.02-1.66.18-2.44.62-.74.43-1.32,1.02-1.76,1.76-.43.74-.65,1.56-.65,2.47v9.56c0,1.39.48,2.55,1.43,3.48s2.08,1.4,3.38,1.4Z"/>
  <path class="cls-3" d="m153.74,75.58c-1.48.95-2.94,1.66-4.39,2.11-1.45.46-2.9.79-4.33,1.01-2.99.43-5.51.14-7.55-.88-2.04-1.02-3.57-2.42-4.59-4.2-1.02-1.78-1.53-3.77-1.53-5.99s.51-4.28,1.53-6.21,2.55-3.56,4.59-4.88,4.6-2.01,7.68-2.05h8.52v-2.21c0-1.47-.47-2.58-1.4-3.32-.93-.74-1.96-1.13-3.09-1.17-.78,0-1.42.1-1.92.29-.5.2-.93.47-1.3.81-.37.35-.71.74-1.01,1.17-.3.43-.61.85-.91,1.24-.78.95-1.62,1.56-2.5,1.82-.89.26-1.74.29-2.54.1-.8-.2-1.52-.57-2.15-1.14-.63-.56-1.03-1.21-1.2-1.95s-.09-1.51.26-2.31c.35-.8,1.07-1.54,2.18-2.21,1.11-.67,2.66-1.23,4.65-1.66,1.99-.43,4.53-.65,7.61-.65,1.86,0,3.78.23,5.74.68,1.96.46,3.76,1.18,5.37,2.18,1.62,1,2.93,2.29,3.95,3.87,1.01,1.58,1.52,3.5,1.52,5.76v15.03c0,.3.06.61.2.91l1.69,3.38c.13.26.2.52.2.78.09.52-.03,1.01-.36,1.46-.33.46-.79.68-1.4.68h-11.07c-.69,0-1.27-.24-1.75-.72s-.71-1.06-.71-1.76v.03h.01Zm-9.56-8.46c0,1.3.47,2.42,1.4,3.35s2.05,1.4,3.35,1.4,2.42-.46,3.35-1.4c.93-.93,1.4-2.05,1.4-3.35v-3.45c0-1.3-.47-2.42-1.4-3.35-.93-.93-2.05-1.4-3.35-1.4s-2.42.47-3.35,1.4-1.4,2.05-1.4,3.35v3.45Z"/>
  <path class="cls-1" d="m185.62,44.22c.69,0,1.28.24,1.76.72s.72,1.06.72,1.76c2.21-1.39,4.41-2.3,6.6-2.73s4.22-.65,6.08-.65c1.52,0,2.89.21,4.13.62s2.3,1.1,3.19,2.05,1.58,2.22,2.08,3.81c.5,1.58.75,3.52.75,5.82v2.5c0,1.02,0,2.06.03,3.12.02,1.06.03,2.1.03,3.12v6.54c0,.35.07.67.2.98l1.69,3.38c.35.65.35,1.3,0,1.95-.35.65-.87.98-1.56.98h-13.99c-.69,0-1.21-.32-1.56-.98-.35-.65-.35-1.3,0-1.95l1.69-3.38c.13-.3.2-.63.2-.98v-16.2c-.09-1.21-.59-2.23-1.5-3.06-.91-.82-2-1.24-3.25-1.24s-2.34.41-3.25,1.24c-.91.82-1.41,1.84-1.5,3.06v16.2c0,.35.06.67.2.98l1.69,3.38c.35.65.35,1.3,0,1.95-.35.65-.87.98-1.56.98h-13.92c-.69,0-1.21-.32-1.56-.98-.35-.65-.35-1.3,0-1.95l1.69-3.38c.13-.3.2-.63.2-.98v-19.52c0-.3-.07-.63-.2-.98l-1.69-3.38c-.35-.65-.35-1.3,0-1.95s.87-.98,1.56-.98h11.12l-.06.13h-.01Z"/>
  <path class="cls-2" d="m245.34,45.91c1.65-1.13,3.46-1.76,5.43-1.89,1.97-.13,3.94-.2,5.89-.2h13.99c.39,0,.73.17,1.01.52.28.35.42.76.42,1.24v5.79c0,1.04-.2,2.03-.59,2.96-.39.93-.91,1.75-1.56,2.44s-1.42,1.25-2.31,1.66c-.89.41-1.83.62-2.83.62s-1.94-.21-2.83-.62c-.89-.41-1.66-.96-2.31-1.66-.65-.69-1.17-1.51-1.56-2.44-.39-.93-.59-1.92-.59-2.96v-.26c0-.87-.3-1.62-.89-2.24-.59-.63-1.33-.94-2.2-.94s-1.61.31-2.2.94c-.59.63-.89,1.38-.89,2.24v5.92c0,.83,0,1.5-.03,2.02s-.03,1.07-.03,1.66v3.03c0,2.39.93,4.32,2.81,5.79,1.91,1.47,4.02,1.95,6.33,1.43l10.25-2.21c.65-.13,1.15.09,1.5.65.35.56.35,1.13,0,1.69-.87,1.39-1.89,2.57-3.06,3.55s-2.44,1.77-3.81,2.37c-1.37.61-2.82,1.06-4.36,1.37-1.54.3-3.09.46-4.65.46h-.2c-2.21,0-4.38-.37-6.51-1.11-1.6-.56-3.11-1.33-4.52-2.31s-2.63-2.17-3.68-3.58c-1.04-1.41-1.87-3.04-2.47-4.88-.61-1.84-.91-3.89-.91-6.15,0-3.43.69-6.35,2.08-8.78s3.14-4.38,5.27-5.85v-.26h0Z"/>
  <path class="cls-4" d="m229.79,10.11c.11.31.2.58.3.85.96,2.42,1.95,4.83,2.89,7.26.84,2.18,1.5,4.41,1.66,6.76.22,3.12-.56,5.99-2.35,8.53-1.02,1.45-2.19,2.79-3.32,4.16-1.01,1.24-2.05,2.45-3.05,3.69-.13.16-.18.44-.18.66,0,3.69-.08,7.39.02,11.08.19,7.68.71,15.34,1.3,23,0,.11,0,.22.02.41-.77-.43-1.5-.83-2.21-1.26-.08-.05-.1-.27-.09-.41.09-4.97.22-9.94.27-14.91.05-5.36,0-10.72-.33-16.08-.04-.69-.09-1.39-.19-2.07-.06-.39-.17-.79-.34-1.14-1.37-2.85-2.84-5.64-3.9-8.63-.82-2.32-1.29-4.68-.88-7.15.35-2.13,1.25-4.04,2.43-5.82,2.16-3.27,4.89-6.03,7.69-8.73.07-.06.15-.11.26-.19h0Z"/>
  <path class="cls-4" d="m221.89,46.83c-1.98-.07-3.93-.2-5.83-.68-1.57-.4-3.05-.99-4.42-1.86-2.04-1.3-3.49-3.1-4.59-5.25-1.05-2.05-2.19-4.06-3.31-6.08-.22-.4-.51-.77-.78-1.17.04-.02.09-.05.15-.06,2.17-.25,4.35-.32,6.51.12,2.55.52,4.68,1.75,6.42,3.68,1.72,1.9,2.93,4.12,3.95,6.44.66,1.52,1.23,3.08,1.85,4.62.03.07.04.14.07.23h-.02Z"/>
  <path class="cls-4" d="m229.14,47.44c.22-.63.41-1.27.65-1.89.92-2.4,2.15-4.63,3.73-6.65,3.64-4.65,8.38-7.36,14.29-7.93.05,0,.1-.02.23-.05-.28.73-.51,1.39-.78,2.04-.79,1.89-1.7,3.72-2.8,5.45-.94,1.48-2,2.86-3.29,4.05-1.41,1.29-3.04,2.13-4.93,2.5-1.86.35-3.69.85-5.43,1.6-.56.24-1.09.57-1.66.88h0Z"/>
  <path class="cls-4" d="m218.86,70.89v-19.52c0-.3-.07-.63-.2-.98l-1.69-3.38c-.35-.65-.35-1.3,0-1.95s.87-.98,1.56-.98h11.12c.69,0,1.28.24,1.76.72s.72,1.06.72,1.76v24.27c0,.35.07.67.2.98l1.69,3.38c.34.65.34,1.3,0,1.95-.35.65-.87.98-1.56.98h-13.92c-.7,0-1.22-.33-1.56-.98-.35-.65-.35-1.3,0-1.95l1.69-3.38c.13-.3.2-.63.2-.98v.06h0Z"/>
  <g>
    <path class="cls-3" d="m281,54.64c-.06-.11-.09-.24-.1-.39,0-.15.02-.28.08-.41s.17-.22.31-.31c.14-.08.33-.13.57-.13h-.03,3.75c.26,0,.48.05.66.15s.33.22.46.35c.15.15.28.31.39.48.41-.45.93-.78,1.55-.99.62-.21,1.26-.32,1.92-.32,1.06,0,2.04.21,2.94.62.9.41,1.67.97,2.32,1.68.65.71,1.16,1.53,1.53,2.46.36.93.55,1.91.55,2.94,0,1.33-.28,2.51-.84,3.56-.56,1.04-1.3,1.9-2.22,2.58-.92.67-1.98,1.13-3.17,1.37-1.19.24-2.43.21-3.71-.11v1.62c0,.13.01.25.04.35.03.1.08.22.14.36.07.14.15.31.25.5s.24.45.41.77c.15.28.15.56,0,.84-.15.28-.37.42-.67.42h-6.44c-.3,0-.52-.14-.67-.42-.15-.28-.15-.56,0-.84.17-.32.3-.57.41-.77.1-.2.19-.36.25-.5.06-.14.11-.26.14-.36s.04-.22.04-.35v-13.27c0-.09-.03-.22-.1-.39-.07-.17-.14-.34-.22-.52-.08-.18-.17-.35-.27-.53-.09-.18-.17-.32-.22-.43h-.06Zm6.97,9.44c0,.58.2,1.07.6,1.48.4.41.89.62,1.46.62s1.06-.21,1.46-.62c.4-.41.6-.91.6-1.48v-6.25c0-.58-.2-1.07-.6-1.48-.4-.41-.88-.62-1.46-.62s-1.06.21-1.46.62c-.4.41-.6.91-.6,1.48v6.25Z"/>
    <path class="cls-3" d="m308.41,56.74c-.09-.22-.25-.37-.48-.45-.22-.08-.45-.07-.67.03-.19.09-.35.23-.49.41-.14.18-.26.38-.35.6-.09.22-.16.44-.21.66-.05.21-.07.4-.07.55v6.36c0,.09.03.22.1.39.07.17.14.34.22.52s.17.35.27.53.17.32.22.43c.15.28.15.56,0,.84-.15.28-.37.42-.67.42h-5.99c-.3,0-.52-.14-.67-.42-.15-.28-.15-.56,0-.84.06-.11.13-.26.22-.43.09-.18.18-.35.27-.53s.16-.35.22-.52c.06-.17.1-.3.1-.39v-8.4c0-.09-.03-.22-.1-.39-.07-.17-.14-.34-.22-.52-.08-.18-.17-.35-.27-.53-.09-.18-.17-.32-.22-.43-.15-.28-.15-.56,0-.84.15-.28.37-.42.67-.42h4.82c.3.02.55.13.76.34.21.21.31.46.31.76.6-.37,1.26-.7,1.99-.98.73-.28,1.45-.4,2.16-.36.34.02.67.1.99.24.33.14.62.32.87.55.25.22.45.49.6.8.15.31.22.65.22,1.02,0,.65-.19,1.18-.57,1.57-.38.39-.83.64-1.33.76-.5.11-1.01.06-1.53-.15-.51-.21-.9-.62-1.16-1.22v.08Z"/>
    <path class="cls-3" d="m319.44,53.27c1.08-.24,2.2-.27,3.36-.08s2.21.59,3.16,1.2,1.73,1.45,2.34,2.51.91,2.32.91,3.79c0,1.06-.17,2.01-.5,2.84-.34.83-.78,1.55-1.33,2.17-.55.62-1.19,1.12-1.9,1.53s-1.47.69-2.25.85c-1.08.24-2.2.27-3.36.08-1.16-.19-2.21-.59-3.16-1.2s-1.73-1.45-2.34-2.49c-.61-1.04-.91-2.31-.91-3.81,0-1.06.17-2.01.5-2.84.34-.83.78-1.55,1.33-2.17.55-.62,1.18-1.12,1.9-1.53.72-.4,1.47-.69,2.25-.85Zm1.9,1.99c-.58,0-1.07.21-1.47.62-.4.41-.6.91-.6,1.48v6.66c0,.58.2,1.07.6,1.48.4.41.89.62,1.47.62s1.07-.21,1.47-.62c.4-.41.6-.91.6-1.48v-6.66c0-.58-.2-1.07-.6-1.48-.4-.41-.89-.62-1.47-.62Z"/>
    <path class="cls-3" d="m347.72,66.71c.06.11.09.24.1.39,0,.15-.02.29-.08.41-.07.12-.17.22-.31.31-.14.08-.33.13-.57.13h.03-3.75c-.26,0-.49-.05-.67-.14-.19-.09-.35-.21-.48-.34-.15-.15-.27-.32-.36-.5-.63.49-1.27.83-1.92,1.02-.64.2-1.39.29-2.23.29-1.04,0-1.98-.18-2.8-.55-.82-.36-1.52-.89-2.09-1.57s-1.01-1.49-1.32-2.44c-.31-.94-.46-1.99-.46-3.15,0-1.31.28-2.49.84-3.54.56-1.05,1.3-1.92,2.23-2.59s1.98-1.12,3.18-1.36,2.44-.2,3.72.1v-1.53c0-.18-.02-.34-.07-.5-.05-.16-.13-.34-.24-.56-.11-.21-.28-.55-.5-.99-.15-.28-.15-.56,0-.84s.37-.42.67-.42h4.98c.35,0,.65.12.9.36s.36.54.36.9v15.23c0,.09.03.22.1.39.06.17.14.34.22.52.08.18.17.35.27.53.09.18.17.32.22.43h.03Zm-6.94-9.44c0-.58-.2-1.07-.6-1.48-.4-.41-.89-.62-1.47-.62s-1.07.21-1.47.62c-.4.41-.6.91-.6,1.48v6.24c0,.58.2,1.07.6,1.48.4.41.89.62,1.47.62s1.07-.21,1.47-.62.6-.91.6-1.48v-6.24Z"/>
    <path class="cls-3" d="m361.22,67.92c-.3,0-.55-.1-.76-.31-.21-.21-.31-.46-.31-.76-.95.6-1.9.99-2.84,1.18s-1.82.28-2.62.28c-.65,0-1.25-.09-1.78-.27-.53-.18-.99-.47-1.37-.88-.38-.41-.68-.96-.9-1.64-.21-.68-.32-1.52-.32-2.51v-1.08c0-.44,0-.89-.01-1.34,0-.46-.01-.91-.01-1.34v-2.81c0-.13-.03-.27-.08-.42l-.73-1.46c-.15-.28-.15-.56,0-.84.15-.28.37-.42.67-.42h6.02c.3,0,.52.14.67.42.15.28.15.56,0,.84l-.73,1.46c-.06.15-.08.29-.08.42v6.97c.04.52.25.96.64,1.32.39.35.86.53,1.4.53s1.01-.18,1.4-.53.61-.79.64-1.32v-6.97c0-.13-.03-.27-.08-.42l-.73-1.46c-.15-.28-.15-.56,0-.84.15-.28.37-.42.67-.42h5.99c.3,0,.52.14.67.42.15.28.15.56,0,.84l-.73,1.46c-.06.15-.08.29-.08.42v8.4c0,.15.03.29.08.42l.73,1.46c.15.28.15.56,0,.84s-.37.42-.67.42h-4.79l.03-.06Z"/>
    <path class="cls-3" d="m370.54,54.11c.71-.49,1.49-.76,2.34-.81.85-.06,1.69-.08,2.53-.08h6.02c.17,0,.31.07.43.22.12.15.18.33.18.53v2.49c0,.45-.08.87-.25,1.27s-.39.75-.67,1.05c-.28.3-.61.54-.99.71-.38.18-.79.27-1.22.27s-.84-.09-1.22-.27c-.38-.18-.71-.42-.99-.71-.28-.3-.5-.65-.67-1.05s-.25-.83-.25-1.27v-.11c0-.37-.13-.7-.38-.97-.25-.27-.57-.41-.95-.41s-.69.14-.95.41c-.25.27-.38.59-.38.97v2.55c0,.35,0,.64-.01.87,0,.22-.01.46-.01.71v1.3c0,1.03.4,1.86,1.21,2.49.82.63,1.73.84,2.72.62l4.41-.95c.28-.06.5.04.65.28.15.24.15.49,0,.73-.37.6-.81,1.11-1.32,1.53s-1.05.76-1.64,1.02c-.59.26-1.21.46-1.88.59-.66.13-1.33.2-2,.2h-.08c-.95,0-1.89-.16-2.8-.48-.69-.24-1.34-.57-1.95-.99-.61-.42-1.13-.93-1.58-1.54-.45-.61-.8-1.31-1.06-2.1-.26-.79-.39-1.68-.39-2.65,0-1.47.3-2.73.9-3.78.6-1.04,1.35-1.88,2.27-2.52v-.11Z"/>
    <path class="cls-3" d="m395.07,66.91c0,.26-.12.45-.36.56-.8.37-1.59.62-2.37.74-.77.12-1.5.18-2.17.18-.75,0-1.4-.09-1.95-.27-.55-.18-1.01-.47-1.37-.88-.36-.41-.63-.96-.81-1.64-.18-.68-.27-1.52-.27-2.51v-7.06c0-.17-.06-.31-.18-.43-.12-.12-.27-.18-.43-.18h-.76c-.17,0-.31-.06-.43-.18-.12-.12-.18-.27-.18-.43v-.84c0-.17.06-.31.17-.43.11-.12.25-.19.42-.21.5-.04,1.01-.17,1.53-.39.51-.22,1-.51,1.46-.87.46-.35.87-.76,1.23-1.22.36-.46.65-.94.85-1.44.09-.24.28-.36.56-.36h.87c.17,0,.31.06.43.18.12.12.18.27.18.43v3.08c0,.17.06.31.18.43s.27.18.43.18h2.32c.17,0,.31.06.43.18.12.12.18.27.18.43v.81c0,.17-.06.31-.18.43-.12.12-.27.18-.43.18h-2.32c-.17,0-.31.06-.43.18-.12.12-.18.27-.18.43v7.28c0,.56.2,1.04.6,1.44.4.4.88.6,1.44.6.26,0,.48-.04.64-.11.21-.06.39-.03.56.08s.25.27.25.48v1.06l.08.06Z"/>
    <path class="cls-3" d="m410.5,54.7c.28.24.45.53.5.85.06.33.02.64-.1.94-.12.3-.31.56-.57.78-.26.22-.56.36-.91.41-.35.05-.72-.03-1.12-.22-.4-.2-.8-.56-1.19-1.11-.17-.22-.33-.43-.48-.63-.15-.2-.3-.36-.45-.49-.37-.3-.76-.45-1.16-.45s-.74.1-1.02.31c-.19.13-.33.3-.42.5-.09.21-.11.43-.06.67s.2.5.43.77c.23.27.57.55,1.02.83.6.35,1.28.71,2.06,1.06s1.5.77,2.17,1.23c.67.47,1.21,1.02,1.62,1.65.41.63.55,1.4.42,2.3-.09.58-.3,1.1-.62,1.57s-.72.87-1.2,1.2c-.34.22-.73.43-1.18.62-.45.19-.93.34-1.46.48-.52.13-1.08.23-1.67.31-.59.08-1.17.11-1.75.11-.69,0-1.37-.04-2.04-.13s-1.3-.22-1.88-.42c-.58-.2-1.09-.44-1.53-.74-.44-.3-.77-.64-.99-1.04-.26-.47-.37-.9-.34-1.29.04-.39.18-.73.42-1.01s.55-.49.91-.64.74-.21,1.12-.2c.38.02.74.13,1.08.32.34.2.59.51.76.94l.08.34c.21.63.5,1.11.88,1.41.38.31.77.49,1.15.55.38.06.73,0,1.05-.14s.53-.36.63-.64c.1-.28.05-.61-.15-.98-.21-.37-.62-.76-1.26-1.15-.6-.35-1.28-.71-2.06-1.06-.78-.35-1.5-.77-2.17-1.23-.67-.47-1.22-1.02-1.64-1.65-.42-.63-.56-1.4-.41-2.3.09-.58.3-1.1.62-1.57s.72-.87,1.2-1.2c.95-.65,1.99-1.09,3.12-1.3,1.13-.21,2.24-.29,3.35-.21.39.04.82.09,1.29.17.47.07.94.17,1.41.29.48.12.92.28,1.34.46s.78.4,1.08.64l.08.08Z"/>
  </g>
</svg>