<?xml version="1.0" encoding="UTF-8"?>
<svg id="Layer_1" data-name="Layer 1" xmlns="http://www.w3.org/2000/svg" xmlns:xlink="http://www.w3.org/1999/xlink" viewBox="0 0 426.2 98.33">
  <defs>
    <style>
      .cls-1 {
        fill: url(#linear-gradient);
      }

      .cls-1, .cls-2, .cls-3, .cls-4 {
        stroke-width: 0px;
      }

      .cls-2 {
        fill: url(#linear-gradient-2);
      }

      .cls-3 {
        fill: #d8cd7d;
      }

      .cls-4 {
        fill: #9fd0c4;
      }
    </style>
    <linearGradient id="linear-gradient" x1="172.75" y1="60.76" x2="213.14" y2="60.76" gradientUnits="userSpaceOnUse">
      <stop offset="0" stop-color="#d7cd7c"/>
      <stop offset=".92" stop-color="#9fd0c4"/>
    </linearGradient>
    <linearGradient id="linear-gradient-2" x1="237.98" y1="61.33" x2="272.41" y2="61.33" gradientUnits="userSpaceOnUse">
      <stop offset=".02" stop-color="#9fd0c4"/>
      <stop offset="1" stop-color="#d7cd7c"/>
    </linearGradient>
  </defs>
  <path class="cls-3" d="m56.35,55.35c0,3.99-.66,7.47-1.98,10.44s-3.08,5.44-5.27,7.42c-2.19,1.97-4.7,3.44-7.51,4.39-2.82.95-5.73,1.41-8.72,1.37-2.99.04-5.9-.41-8.72-1.37-2.82-.95-5.32-2.42-7.51-4.39s-3.95-4.45-5.27-7.42-1.98-6.45-1.98-10.44.66-7.47,1.98-10.44c1.32-2.97,3.08-5.44,5.27-7.42,2.19-1.97,4.69-3.44,7.51-4.39s5.72-1.41,8.72-1.37c2.99-.04,5.9.41,8.72,1.37,2.82.95,5.32,2.42,7.51,4.39,2.19,1.97,3.95,4.45,5.27,7.42,1.32,2.97,1.98,6.45,1.98,10.44Zm-16-11.25c0-1.52-.37-2.8-1.11-3.84s-1.67-1.81-2.8-2.31-2.34-.75-3.64-.75-2.52.25-3.64.75c-1.13.5-2.06,1.27-2.8,2.31s-1.11,2.32-1.11,3.84v22.44c0,1.52.37,2.8,1.11,3.84.74,1.04,1.67,1.82,2.8,2.34s2.34.78,3.64.78,2.51-.26,3.64-.78,2.06-1.29,2.8-2.31c.74-1.02,1.11-2.31,1.11-3.87v-22.44h0Z"/>
  <path class="cls-3" d="m80.68,52.03c-.22-.52-.59-.87-1.11-1.04-.52-.17-1.04-.15-1.56.06-.43.22-.81.53-1.14.94s-.6.88-.81,1.4c-.22.52-.38,1.03-.49,1.53s-.16.92-.16,1.27v14.77c0,.22.08.52.23.91.15.39.33.79.52,1.2s.4.82.62,1.24c.22.41.39.75.52,1.01.35.65.35,1.3,0,1.95-.35.65-.87.98-1.56.98h-13.92c-.69,0-1.21-.32-1.56-.98-.35-.65-.35-1.3,0-1.95.13-.26.3-.6.52-1.01s.42-.82.62-1.24.37-.81.52-1.2.23-.69.23-.91v-19.52c0-.22-.08-.52-.23-.91s-.33-.79-.52-1.2c-.2-.41-.4-.82-.62-1.24-.22-.41-.39-.75-.52-1.01-.35-.65-.35-1.3,0-1.95s.87-.98,1.56-.98h11.19c.69.04,1.28.3,1.76.78s.72,1.06.72,1.76c1.39-.87,2.93-1.63,4.62-2.28,1.69-.65,3.36-.93,5.01-.85.78.04,1.55.23,2.31.55.76.33,1.43.75,2.02,1.27s1.05,1.14,1.4,1.85c.35.72.52,1.51.52,2.37,0,1.52-.45,2.73-1.33,3.64-.89.91-1.92,1.5-3.09,1.76s-2.35.14-3.55-.36c-1.19-.5-2.09-1.44-2.7-2.83v.2l-.02.02h0Z"/>
  <path class="cls-3" d="m101.37,90.02c-1.39,0-2.61-.25-3.68-.75-1.06-.5-1.95-1.14-2.67-1.92s-1.27-1.68-1.66-2.7c-.39-1.02-.61-2.05-.65-3.09-.04-1.3.16-2.6.62-3.9s1.07-2.54,1.85-3.71c1.17-1.78,2.69-3.32,4.55-4.62-1.65-1.26-2.99-2.81-4.03-4.65-1.04-1.84-1.56-3.96-1.56-6.34,0-2.86.68-5.31,2.05-7.35,1.37-2.04,3.11-3.65,5.24-4.85,2.12-1.19,4.48-1.98,7.06-2.37,2.58-.39,5.11-.37,7.58.06.26.09.54.14.85.16.3.02.56,0,.78-.07.22-.06.4-.21.55-.42.15-.22.23-.54.23-.98,0-.26-.01-.6-.03-1.01s0-.8.07-1.17c.06-.37.17-.69.32-.98.15-.28.42-.42.81-.42h6.57c.52,0,1.01,0,1.46-.03.46-.02.87,0,1.24.06.37.06.65.21.85.42.2.22.29.56.29,1.04,0,.35,0,.75.03,1.2.02.46,0,.9-.03,1.33-.04.43-.14.81-.29,1.14-.15.33-.38.53-.68.62l-5.86,1.69c1.95,1.26,3.55,2.86,4.78,4.81s1.85,4.29,1.85,7.03c0,2.3-.48,4.34-1.43,6.12-.95,1.78-2.21,3.29-3.77,4.52s-3.34,2.2-5.33,2.9c-2,.69-4.01,1.11-6.05,1.24h-9.82c-.56,0-.99.24-1.27.72s-.42,1.01-.42,1.59.14,1.12.42,1.59c.28.48.7.72,1.27.72h19.06c1.17,0,2.23.26,3.19.78.95.52,1.78,1.21,2.47,2.08.78,1,1.36,2.18,1.72,3.55.37,1.37.44,2.77.23,4.2-.09.65-.22,1.3-.39,1.95-.35.43-.79.69-1.33.78-.54.09-1.12-.06-1.72-.45-.3-.22-.6-.39-.88-.52s-.6-.2-.94-.2l-23.49.2h-.01Zm10.54-22.05c1.34,0,2.48-.48,3.42-1.43.93-.95,1.4-2.1,1.4-3.45v-9.56c0-.95-.23-1.8-.68-2.54-.46-.74-1.04-1.3-1.76-1.69s-1.5-.6-2.34-.62c-.85-.02-1.66.18-2.44.62-.74.43-1.32,1.02-1.76,1.76-.43.74-.65,1.56-.65,2.47v9.56c0,1.39.48,2.55,1.43,3.48s2.08,1.4,3.38,1.4Z"/>
  <path class="cls-3" d="m153.74,75.58c-1.48.95-2.94,1.66-4.39,2.11-1.45.46-2.9.79-4.33,1.01-2.99.43-5.51.14-7.55-.88-2.04-1.02-3.57-2.42-4.59-4.2-1.02-1.78-1.53-3.77-1.53-5.99s.51-4.28,1.53-6.21,2.55-3.56,4.59-4.88,4.6-2.01,7.68-2.05h8.52v-2.21c0-1.47-.47-2.58-1.4-3.32-.93-.74-1.96-1.13-3.09-1.17-.78,0-1.42.1-1.92.29-.5.2-.93.47-1.3.81-.37.35-.71.74-1.01,1.17-.3.43-.61.85-.91,1.24-.78.95-1.62,1.56-2.5,1.82-.89.26-1.74.29-2.54.1-.8-.2-1.52-.57-2.15-1.14-.63-.56-1.03-1.21-1.2-1.95s-.09-1.51.26-2.31c.35-.8,1.07-1.54,2.18-2.21,1.11-.67,2.66-1.23,4.65-1.66,1.99-.43,4.53-.65,7.61-.65,1.86,0,3.78.23,5.74.68,1.96.46,3.76,1.18,5.37,2.18,1.62,1,2.93,2.29,3.95,3.87,1.01,1.58,1.52,3.5,1.52,5.76v15.03c0,.3.06.61.2.91l1.69,3.38c.13.26.2.52.2.78.09.52-.03,1.01-.36,1.46-.33.46-.79.68-1.4.68h-11.07c-.69,0-1.27-.24-1.75-.72s-.71-1.06-.71-1.76v.03h.01Zm-9.56-8.46c0,1.3.47,2.42,1.4,3.35s2.05,1.4,3.35,1.4,2.42-.46,3.35-1.4c.93-.93,1.4-2.05,1.4-3.35v-3.45c0-1.3-.47-2.42-1.4-3.35-.93-.93-2.05-1.4-3.35-1.4s-2.42.47-3.35,1.4-1.4,2.05-1.4,3.35v3.45Z"/>
  <path class="cls-1" d="m185.62,44.22c.69,0,1.28.24,1.76.72s.72,1.06.72,1.76c2.21-1.39,4.41-2.3,6.6-2.73s4.22-.65,6.08-.65c1.52,0,2.89.21,4.13.62s2.3,1.1,3.19,2.05,1.58,2.22,2.08,3.81c.5,1.58.75,3.52.75,5.82v2.5c0,1.02,0,2.06.03,3.12.02,1.06.03,2.1.03,3.12v6.54c0,.35.07.67.2.98l1.69,3.38c.35.65.35,1.3,0,1.95-.35.65-.87.98-1.56.98h-13.99c-.69,0-1.21-.32-1.56-.98-.35-.65-.35-1.3,0-1.95l1.69-3.38c.13-.3.2-.63.2-.98v-16.2c-.09-1.21-.59-2.23-1.5-3.06-.91-.82-2-1.24-3.25-1.24s-2.34.41-3.25,1.24c-.91.82-1.41,1.84-1.5,3.06v16.2c0,.35.06.67.2.98l1.69,3.38c.35.65.35,1.3,0,1.95-.35.65-.87.98-1.56.98h-13.92c-.69,0-1.21-.32-1.56-.98-.35-.65-.35-1.3,0-1.95l1.69-3.38c.13-.3.2-.63.2-.98v-19.52c0-.3-.07-.63-.2-.98l-1.69-3.38c-.35-.65-.35-1.3,0-1.95s.87-.98,1.56-.98h11.12l-.06.13h-.01Z"/>
  <path class="cls-2" d="m245.34,45.91c1.65-1.13,3.46-1.76,5.43-1.89,1.97-.13,3.94-.2,5.89-.2h13.99c.39,0,.73.17,1.01.52.28.35.42.76.42,1.24v5.79c0,1.04-.2,2.03-.59,2.96-.39.93-.91,1.75-1.56,2.44s-1.42,1.25-2.31,1.66c-.89.41-1.83.62-2.83.62s-1.94-.21-2.83-.62c-.89-.41-1.66-.96-2.31-1.66-.65-.69-1.17-1.51-1.56-2.44-.39-.93-.59-1.92-.59-2.96v-.26c0-.87-.3-1.62-.89-2.24-.59-.63-1.33-.94-2.2-.94s-1.61.31-2.2.94c-.59.63-.89,1.38-.89,2.24v5.92c0,.83,0,1.5-.03,2.02s-.03,1.07-.03,1.66v3.03c0,2.39.93,4.32,2.81,5.79,1.91,1.47,4.02,1.95,6.33,1.43l10.25-2.21c.65-.13,1.15.09,1.5.65.35.56.35,1.13,0,1.69-.87,1.39-1.89,2.57-3.06,3.55s-2.44,1.77-3.81,2.37c-1.37.61-2.82,1.06-4.36,1.37-1.54.3-3.09.46-4.65.46h-.2c-2.21,0-4.38-.37-6.51-1.11-1.6-.56-3.11-1.33-4.52-2.31s-2.63-2.17-3.68-3.58c-1.04-1.41-1.87-3.04-2.47-4.88-.61-1.84-.91-3.89-.91-6.15,0-3.43.69-6.35,2.08-8.78s3.14-4.38,5.27-5.85v-.26h0Z"/>
  <path class="cls-4" d="m229.79,10.11c.11.31.2.58.3.85.96,2.42,1.95,4.83,2.89,7.26.84,2.18,1.5,4.41,1.66,6.76.22,3.12-.56,5.99-2.35,8.53-1.02,1.45-2.19,2.79-3.32,4.16-1.01,1.24-2.05,2.45-3.05,3.69-.13.16-.18.44-.18.66,0,3.69-.08,7.39.02,11.08.19,7.68.71,15.34,1.3,23,0,.11,0,.22.02.41-.77-.43-1.5-.83-2.21-1.26-.08-.05-.1-.27-.09-.41.09-4.97.22-9.94.27-14.91.05-5.36,0-10.72-.33-16.08-.04-.69-.09-1.39-.19-2.07-.06-.39-.17-.79-.34-1.14-1.37-2.85-2.84-5.64-3.9-8.63-.82-2.32-1.29-4.68-.88-7.15.35-2.13,1.25-4.04,2.43-5.82,2.16-3.27,4.89-6.03,7.69-8.73.07-.06.15-.11.26-.19h0Z"/>
  <path class="cls-4" d="m221.89,46.83c-1.98-.07-3.93-.2-5.83-.68-1.57-.4-3.05-.99-4.42-1.86-2.04-1.3-3.49-3.1-4.59-5.25-1.05-2.05-2.19-4.06-3.31-6.08-.22-.4-.51-.77-.78-1.17.04-.02.09-.05.15-.06,2.17-.25,4.35-.32,6.51.12,2.55.52,4.68,1.75,6.42,3.68,1.72,1.9,2.93,4.12,3.95,6.44.66,1.52,1.23,3.08,1.85,4.62.03.07.04.14.07.23h-.02Z"/>
  <path class="cls-4" d="m229.14,47.44c.22-.63.41-1.27.65-1.89.92-2.4,2.15-4.63,3.73-6.65,3.64-4.65,8.38-7.36,14.29-7.93.05,0,.1-.02.23-.05-.28.73-.51,1.39-.78,2.04-.79,1.89-1.7,3.72-2.8,5.45-.94,1.48-2,2.86-3.29,4.05-1.41,1.29-3.04,2.13-4.93,2.5-1.86.35-3.69.85-5.43,1.6-.56.24-1.09.57-1.66.88h0Z"/>
  <path class="cls-4" d="m218.86,70.89v-19.52c0-.3-.07-.63-.2-.98l-1.69-3.38c-.35-.65-.35-1.3,0-1.95s.87-.98,1.56-.98h11.12c.69,0,1.28.24,1.76.72s.72,1.06.72,1.76v24.27c0,.35.07.67.2.98l1.69,3.38c.34.65.34,1.3,0,1.95-.35.65-.87.98-1.56.98h-13.92c-.7,0-1.22-.33-1.56-.98-.35-.65-.35-1.3,0-1.95l1.69-3.38c.13-.3.2-.63.2-.98v.06h0Z"/>
  <g>
    <path class="cls-3" d="m287.58,54.49c.95-.6,1.89-1,2.83-1.19.94-.19,1.81-.28,2.61-.28.65,0,1.24.09,1.77.27.53.18.99.47,1.37.88.38.41.68.96.89,1.64.21.68.32,1.52.32,2.51v1.08c0,.44,0,.89.01,1.34,0,.46.01.91.01,1.34v2.81c0,.15.03.29.08.42l.73,1.46c.15.28.15.56,0,.84-.15.28-.37.42-.67.42h-6.02c-.3,0-.52-.14-.67-.42-.15-.28-.15-.56,0-.84l.73-1.45c.06-.13.08-.27.08-.42v-6.79c0-.56-.2-1.04-.6-1.44-.4-.4-.88-.6-1.44-.6s-1.01.18-1.4.53c-.39.35-.61.79-.64,1.31v6.96c0,.15.03.29.08.42l.73,1.45c.15.28.15.56,0,.84-.15.28-.37.42-.67.42h-5.99c-.3,0-.52-.14-.67-.42-.15-.28-.15-.56,0-.84l.73-1.46c.06-.13.08-.27.08-.42v-13.36c0-.13-.03-.27-.08-.42l-.73-1.46c-.15-.28-.15-.56,0-.84.15-.28.37-.42.67-.42h4.79c.3,0,.55.1.76.31.21.21.31.46.31.76v5.05Z"/>
    <path class="cls-3" d="m305.89,53.27c1.08-.24,2.2-.27,3.36-.08s2.21.59,3.16,1.2,1.73,1.45,2.34,2.51.91,2.32.91,3.79c0,1.06-.17,2.01-.5,2.84-.34.83-.78,1.55-1.33,2.17-.55.62-1.19,1.12-1.9,1.53s-1.47.69-2.25.85c-1.08.24-2.2.27-3.36.08-1.16-.19-2.21-.59-3.16-1.2s-1.73-1.45-2.34-2.49c-.61-1.04-.91-2.31-.91-3.81,0-1.06.17-2.01.5-2.84.34-.83.78-1.55,1.33-2.17.55-.62,1.18-1.12,1.9-1.53.72-.4,1.47-.69,2.25-.85Zm1.9,1.99c-.58,0-1.07.21-1.47.62-.4.41-.6.91-.6,1.48v6.66c0,.58.2,1.07.6,1.48.4.41.89.62,1.47.62s1.07-.21,1.47-.62c.4-.41.6-.91.6-1.48v-6.66c0-.58-.2-1.07-.6-1.48-.4-.41-.89-.62-1.47-.62Z"/>
    <path class="cls-3" d="m322.32,53.38c.3,0,.55.1.76.31.21.21.31.46.31.76.95-.6,1.9-.99,2.84-1.18s1.82-.28,2.62-.28c.65,0,1.25.09,1.78.27.53.18.99.47,1.37.88s.68.96.9,1.64c.21.68.32,1.52.32,2.51v1.08c0,.44,0,.89.01,1.34,0,.46.01.91.01,1.34v2.81c0,.15.03.29.08.42l.73,1.46c.15.28.15.56,0,.84-.15.28-.37.42-.67.42h-6.02c-.3,0-.52-.14-.67-.42-.15-.28-.15-.56,0-.84l.73-1.46c.06-.13.08-.27.08-.42v-6.97c-.04-.52-.25-.96-.64-1.32-.39-.35-.86-.53-1.4-.53s-1.01.18-1.4.53c-.39.36-.61.79-.64,1.32v6.97c0,.15.03.29.08.42l.73,1.46c.15.28.15.56,0,.84-.15.28-.37.42-.67.42h-5.99c-.3,0-.52-.14-.67-.42-.15-.28-.15-.56,0-.84l.73-1.46c.06-.13.08-.27.08-.42v-8.4c0-.13-.03-.27-.08-.42l-.73-1.46c-.15-.28-.15-.56,0-.84.15-.28.37-.42.67-.42h4.79l-.03.06Z"/>
    <path class="cls-3" d="m341.2,53.21c1.06-.24,2.17-.28,3.3-.1,1.14.18,2.18.56,3.12,1.15.94.59,1.73,1.39,2.35,2.41s.96,2.24.99,3.68v.42c0,.21-.07.38-.22.53s-.33.22-.53.22h-8.57c-.19,0-.34.08-.45.22-.11.15-.16.31-.14.48.11.84.5,1.52,1.18,2.04.82.63,1.73.84,2.72.62l4.4-.95c.28-.06.49.04.64.28.15.24.15.49,0,.73-.37.6-.81,1.11-1.32,1.53s-1.05.76-1.64,1.02c-.59.26-1.21.46-1.88.59-.66.13-1.33.2-2,.2h-.73c-.92-.07-1.81-.28-2.67-.63-.87-.34-1.64-.83-2.31-1.47-.67-.63-1.21-1.41-1.62-2.32-.41-.91-.62-1.97-.62-3.16,0-1.06.17-2.02.5-2.86.34-.84.78-1.57,1.33-2.18.55-.62,1.18-1.12,1.9-1.53.72-.4,1.47-.69,2.25-.85v-.06Zm3.22,6.5c.21,0,.38-.08.53-.22.15-.15.22-.33.22-.53v-1.62c0-.58-.2-1.07-.6-1.48-.4-.41-.89-.62-1.47-.62s-1.07.21-1.47.62-.6.91-.6,1.48v1.62c0,.21.07.38.22.53s.33.22.53.22h2.63Z"/>
    <path class="cls-3" d="m368.27,68.03c-.02.93-.2,1.7-.53,2.31-.34.61-.9,1.18-1.68,1.72-.34.22-.73.43-1.18.62-.45.19-.93.34-1.46.48-.52.13-1.08.23-1.67.31-.59.07-1.17.11-1.75.11s-1.18,0-1.75-.03c-.57-.02-1.1-.07-1.6-.14-.49-.07-.95-.19-1.36-.34-.41-.15-.76-.35-1.04-.62-.43-.39-.69-.78-.78-1.18-.09-.39-.07-.75.06-1.08.13-.33.35-.61.64-.84.3-.23.64-.39,1.04-.46.39-.07.79-.05,1.2.08.41.13.78.38,1.12.76.17.19.35.39.56.6.21.21.43.42.67.6s.5.34.77.45c.27.11.55.15.83.11.45-.04.82-.17,1.11-.41.29-.23.51-.52.67-.85s.27-.7.32-1.11.08-.79.08-1.16v-1.06c-.95.6-1.9.99-2.84,1.18-.94.19-1.82.28-2.62.28-.65,0-1.25-.09-1.78-.27s-.99-.47-1.37-.88c-.38-.41-.68-.96-.9-1.64-.21-.68-.32-1.52-.32-2.51v-1.08c0-.44,0-.89-.01-1.34,0-.46-.01-.91-.01-1.34v-1.11c0-.58,0-.99.01-1.25,0-.25,0-.47-.04-.64-.04-.18-.12-.38-.24-.6-.12-.22-.3-.59-.55-1.09-.15-.28-.15-.56,0-.84s.37-.42.67-.42h5.99c.3,0,.52.14.67.42s.15.56,0,.84c-.06.11-.13.26-.22.43-.09.18-.18.35-.27.53-.08.18-.16.35-.22.52s-.1.3-.1.39v6.97c.04.52.25.96.65,1.32.39.36.87.53,1.41.53s1.01-.18,1.41-.53c.39-.35.61-.79.65-1.32v-6.97c0-.09-.03-.22-.1-.39s-.14-.34-.22-.52c-.08-.18-.17-.35-.27-.53s-.17-.32-.22-.43c-.15-.28-.15-.56,0-.84.15-.28.37-.42.67-.42h5.96c.3,0,.52.14.67.42s.15.56,0,.84l-.78,1.62c0,1.12,0,2.17-.01,3.14,0,.97-.01,1.99-.01,3.05l.06,5.6Z"/>
  </g>
</svg>