<?xml version="1.0" encoding="utf-8"?>
<!-- Generator: Adobe Illustrator 28.0.0, SVG Export Plug-In . SVG Version: 6.00 Build 0)  -->
<svg version="1.1" id="Layer_1" xmlns="http://www.w3.org/2000/svg" xmlns:xlink="http://www.w3.org/1999/xlink" x="0px" y="0px"
	 viewBox="0 0 426.2 98.3" style="enable-background:new 0 0 426.2 98.3;" xml:space="preserve">
<style type="text/css">
	.st0{fill:#D8CD7D;}
	.st1{fill:url(#SVGID_1_);}
	.st2{fill:url(#SVGID_00000028316877110127835710000017309000087411691196_);}
	.st3{fill:#9FD0C4;}
	.st4{font-family:'ChillionRegular';}
	.st5{font-size:28px;}
</style>
<path class="st0" d="M56.3,55.3c0,4-0.7,7.5-2,10.4c-1.3,2.9-3.1,5.4-5.3,7.4s-4.7,3.4-7.5,4.4c-2.8,0.9-5.7,1.4-8.7,1.4
	s-5.9-0.4-8.7-1.4c-2.8-0.9-5.3-2.4-7.5-4.4s-3.9-4.4-5.3-7.4s-2-6.5-2-10.4s0.7-7.5,2-10.4c1.3-3,3.1-5.4,5.3-7.4s4.7-3.4,7.5-4.4
	s5.7-1.4,8.7-1.4s5.9,0.4,8.7,1.4s5.3,2.4,7.5,4.4s4,4.5,5.3,7.4C55.7,47.9,56.3,51.4,56.3,55.3z M40.3,44.1c0-1.5-0.4-2.8-1.1-3.8
	s-1.7-1.8-2.8-2.3s-2.3-0.8-3.6-0.8s-2.5,0.2-3.6,0.8c-1.1,0.5-2.1,1.3-2.8,2.3s-1.1,2.3-1.1,3.8v22.4c0,1.5,0.4,2.8,1.1,3.8
	s1.7,1.8,2.8,2.3s2.3,0.8,3.6,0.8c1.3,0,2.5-0.3,3.6-0.8s2.1-1.3,2.8-2.3s1.1-2.3,1.1-3.9V44.1L40.3,44.1z"/>
<path class="st0" d="M80.7,52c-0.2-0.5-0.6-0.9-1.1-1c-0.5-0.2-1-0.2-1.6,0.1c-0.4,0.2-0.8,0.5-1.1,0.9s-0.6,0.9-0.8,1.4
	c-0.2,0.5-0.4,1-0.5,1.5s-0.2,0.9-0.2,1.3V71c0,0.2,0.1,0.5,0.2,0.9c0.2,0.4,0.3,0.8,0.5,1.2s0.4,0.8,0.6,1.2c0.2,0.4,0.4,0.8,0.5,1
	c0.3,0.7,0.3,1.3,0,1.9c-0.3,0.7-0.9,1-1.6,1H61.8c-0.7,0-1.2-0.3-1.6-1c-0.3-0.7-0.3-1.3,0-1.9c0.1-0.3,0.3-0.6,0.5-1
	s0.4-0.8,0.6-1.2s0.4-0.8,0.5-1.2S62,71.2,62,71V51.4c0-0.2-0.1-0.5-0.2-0.9s-0.3-0.8-0.5-1.2s-0.4-0.8-0.6-1.2
	c-0.2-0.4-0.4-0.8-0.5-1c-0.3-0.7-0.3-1.3,0-2s0.9-1,1.6-1H73c0.7,0,1.3,0.3,1.8,0.8s0.7,1.1,0.7,1.8c1.4-0.9,2.9-1.6,4.6-2.3
	s3.4-0.9,5-0.8c0.8,0,1.6,0.2,2.3,0.5c0.8,0.3,1.4,0.8,2,1.3s1.1,1.1,1.4,1.8s0.5,1.5,0.5,2.4c0,1.5-0.4,2.7-1.3,3.6
	c-0.9,0.9-1.9,1.5-3.1,1.8s-2.3,0.1-3.6-0.4c-1.2-0.5-2.1-1.4-2.7-2.8L80.7,52L80.7,52L80.7,52z"/>
<path class="st0" d="M101.4,90c-1.4,0-2.6-0.2-3.7-0.8c-1.1-0.5-1.9-1.1-2.7-1.9s-1.3-1.7-1.7-2.7c-0.4-1-0.6-2.1-0.7-3.1
	c0-1.3,0.2-2.6,0.6-3.9s1.1-2.5,1.8-3.7c1.2-1.8,2.7-3.3,4.6-4.6c-1.7-1.3-3-2.8-4-4.7c-1-1.8-1.6-4-1.6-6.3c0-2.9,0.7-5.3,2.1-7.3
	s3.1-3.7,5.2-4.8c2.1-1.2,4.5-2,7.1-2.4s5.1-0.4,7.6,0.1c0.3,0.1,0.5,0.1,0.8,0.2c0.3,0,0.6,0,0.8-0.1c0.2-0.1,0.4-0.2,0.6-0.4
	s0.2-0.5,0.2-1c0-0.3,0-0.6,0-1s0-0.8,0.1-1.2s0.2-0.7,0.3-1c0.2-0.3,0.4-0.4,0.8-0.4h6.6c0.5,0,1,0,1.5,0s0.9,0,1.2,0.1
	c0.4,0.1,0.6,0.2,0.9,0.4c0.2,0.2,0.3,0.6,0.3,1c0,0.3,0,0.8,0,1.2c0,0.5,0,0.9,0,1.3c0,0.4-0.1,0.8-0.3,1.1
	c-0.1,0.3-0.4,0.5-0.7,0.6l-5.9,1.7c1.9,1.3,3.6,2.9,4.8,4.8s1.9,4.3,1.9,7c0,2.3-0.5,4.3-1.4,6.1c-0.9,1.8-2.2,3.3-3.8,4.5
	s-3.3,2.2-5.3,2.9c-2,0.7-4,1.1-6.1,1.2h-9.8c-0.6,0-1,0.2-1.3,0.7s-0.4,1-0.4,1.6s0.1,1.1,0.4,1.6s0.7,0.7,1.3,0.7h19.1
	c1.2,0,2.2,0.3,3.2,0.8c0.9,0.5,1.8,1.2,2.5,2.1c0.8,1,1.4,2.2,1.7,3.6c0.4,1.4,0.4,2.8,0.2,4.2c-0.1,0.7-0.2,1.3-0.4,1.9
	c-0.4,0.4-0.8,0.7-1.3,0.8c-0.5,0.1-1.1-0.1-1.7-0.4c-0.3-0.2-0.6-0.4-0.9-0.5s-0.6-0.2-0.9-0.2L101.4,90L101.4,90L101.4,90z
	 M111.9,68c1.3,0,2.5-0.5,3.4-1.4s1.4-2.1,1.4-3.5v-9.6c0-1-0.2-1.8-0.7-2.5s-1-1.3-1.8-1.7s-1.5-0.6-2.3-0.6s-1.7,0.2-2.4,0.6
	c-0.7,0.4-1.3,1-1.8,1.8c-0.4,0.7-0.7,1.6-0.7,2.5v9.6c0,1.4,0.5,2.5,1.4,3.5S110.6,68,111.9,68z"/>
<path class="st0" d="M153.7,75.6c-1.5,0.9-2.9,1.7-4.4,2.1c-1.4,0.5-2.9,0.8-4.3,1c-3,0.4-5.5,0.1-7.6-0.9c-2-1-3.6-2.4-4.6-4.2
	c-1-1.8-1.5-3.8-1.5-6s0.5-4.3,1.5-6.2s2.6-3.6,4.6-4.9s4.6-2,7.7-2h8.5v-2.2c0-1.5-0.5-2.6-1.4-3.3s-2-1.1-3.1-1.2
	c-0.8,0-1.4,0.1-1.9,0.3s-0.9,0.5-1.3,0.8c-0.4,0.3-0.7,0.7-1,1.2c-0.3,0.4-0.6,0.8-0.9,1.2c-0.8,1-1.6,1.6-2.5,1.8
	c-0.9,0.3-1.7,0.3-2.5,0.1s-1.5-0.6-2.1-1.1c-0.6-0.6-1-1.2-1.2-2s-0.1-1.5,0.3-2.3c0.4-0.8,1.1-1.5,2.2-2.2
	c1.1-0.7,2.7-1.2,4.6-1.7c2-0.4,4.5-0.7,7.6-0.7c1.9,0,3.8,0.2,5.7,0.7c2,0.5,3.8,1.2,5.4,2.2c1.6,1,2.9,2.3,3.9,3.9
	c1,1.6,1.5,3.5,1.5,5.8v15c0,0.3,0.1,0.6,0.2,0.9l1.7,3.4c0.1,0.3,0.2,0.5,0.2,0.8c0.1,0.5,0,1-0.4,1.5c-0.3,0.5-0.8,0.7-1.4,0.7
	h-11.1c-0.7,0-1.3-0.2-1.8-0.7S153.7,76.3,153.7,75.6L153.7,75.6L153.7,75.6z M144.2,67.1c0,1.3,0.5,2.4,1.4,3.3s2.1,1.4,3.4,1.4
	s2.4-0.5,3.4-1.4c0.9-0.9,1.4-2.1,1.4-3.3v-3.5c0-1.3-0.5-2.4-1.4-3.3c-0.9-0.9-2.1-1.4-3.4-1.4s-2.4,0.5-3.4,1.4s-1.4,2-1.4,3.3
	V67.1z"/>
<linearGradient id="SVGID_1_" gradientUnits="userSpaceOnUse" x1="172.7475" y1="39.25" x2="213.1425" y2="39.25" gradientTransform="matrix(1 0 0 -1 0 100)">
	<stop  offset="0" style="stop-color:#D7CD7C"/>
	<stop  offset="0.92" style="stop-color:#9FD0C4"/>
</linearGradient>
<path class="st1" d="M185.6,44.2c0.7,0,1.3,0.2,1.8,0.7s0.7,1.1,0.7,1.8c2.2-1.4,4.4-2.3,6.6-2.7s4.2-0.7,6.1-0.7
	c1.5,0,2.9,0.2,4.1,0.6s2.3,1.1,3.2,2s1.6,2.2,2.1,3.8s0.8,3.5,0.8,5.8V58c0,1,0,2.1,0,3.1c0,1.1,0,2.1,0,3.1v6.5
	c0,0.3,0.1,0.7,0.2,1l1.7,3.4c0.4,0.7,0.4,1.3,0,1.9c-0.4,0.7-0.9,1-1.6,1h-14c-0.7,0-1.2-0.3-1.6-1c-0.4-0.7-0.4-1.3,0-1.9l1.7-3.4
	c0.1-0.3,0.2-0.6,0.2-1v-16c-0.1-1.2-0.6-2.2-1.5-3.1c-0.9-0.8-2-1.2-3.2-1.2s-2.3,0.4-3.2,1.2s-1.4,1.8-1.5,3.1v16.2
	c0,0.3,0.1,0.7,0.2,1l1.7,3.4c0.4,0.7,0.4,1.3,0,1.9c-0.4,0.7-0.9,1-1.6,1h-13.9c-0.7,0-1.2-0.3-1.6-1c-0.4-0.7-0.4-1.3,0-1.9
	l1.7-3.4c0.1-0.3,0.2-0.6,0.2-1V51.4c0-0.3-0.1-0.6-0.2-1L173,47c-0.4-0.7-0.4-1.3,0-2s0.9-1,1.6-1h11.1L185.6,44.2L185.6,44.2
	L185.6,44.2z"/>
<linearGradient id="SVGID_00000093156016471186061550000010219487801756186537_" gradientUnits="userSpaceOnUse" x1="237.9801" y1="38.6" x2="272.4126" y2="38.6" gradientTransform="matrix(1 0 0 -1 0 100)">
	<stop  offset="2.000000e-02" style="stop-color:#9FD0C4"/>
	<stop  offset="1" style="stop-color:#D7CD7C"/>
</linearGradient>
<path style="fill:url(#SVGID_00000093156016471186061550000010219487801756186537_);" d="M245.3,45.9c1.6-1.1,3.5-1.8,5.4-1.9
	c2-0.1,3.9-0.2,5.9-0.2h14c0.4,0,0.7,0.2,1,0.5s0.4,0.8,0.4,1.2v5.8c0,1-0.2,2-0.6,3c-0.4,0.9-0.9,1.8-1.6,2.4s-1.4,1.2-2.3,1.7
	c-0.9,0.4-1.8,0.6-2.8,0.6s-1.9-0.2-2.8-0.6c-0.9-0.4-1.7-1-2.3-1.7c-0.6-0.7-1.2-1.5-1.6-2.4s-0.6-1.9-0.6-3V51
	c0-0.9-0.3-1.6-0.9-2.2c-0.6-0.6-1.3-0.9-2.2-0.9s-1.6,0.3-2.2,0.9c-0.6,0.6-0.9,1.4-0.9,2.2v6c0,0.8,0,1.5,0,2s0,1.1,0,1.7v3
	c0,2.4,0.9,4.3,2.8,5.8c1.9,1.5,4,1.9,6.3,1.4l10.2-2.2c0.6-0.1,1.1,0.1,1.5,0.7s0.4,1.1,0,1.7c-0.9,1.4-1.9,2.6-3.1,3.6
	s-2.4,1.8-3.8,2.4s-2.8,1.1-4.4,1.4c-1.5,0.3-3.1,0.5-4.6,0.5h-0.2c-2.2,0-4.4-0.4-6.5-1.1c-1.6-0.6-3.1-1.3-4.5-2.3
	s-2.6-2.2-3.7-3.6c-1-1.4-1.9-3-2.5-4.9c-0.6-1.8-0.9-3.9-0.9-6.2c0-3.4,0.7-6.3,2.1-8.8s3.1-4.4,5.3-5.8L245.3,45.9L245.3,45.9
	L245.3,45.9z"/>
<path class="st3" d="M229.8,10.1c0.1,0.3,0.2,0.6,0.3,0.9c1,2.4,1.9,4.8,2.9,7.3c0.8,2.2,1.5,4.4,1.7,6.8c0.2,3.1-0.6,6-2.4,8.5
	c-1,1.5-2.2,2.8-3.3,4.2c-1,1.2-2.1,2.5-3.1,3.7c-0.1,0.2-0.2,0.4-0.2,0.7c0,3.7-0.1,7.4,0,11.1c0.2,7.7,0.7,15.3,1.3,23
	c0,0.1,0,0.2,0,0.4c-0.8-0.4-1.5-0.8-2.2-1.3c-0.1-0.1-0.1-0.3-0.1-0.4c0.1-5,0.2-9.9,0.3-14.9c0.1-5.4,0-10.7-0.3-16.1
	c0-0.7-0.1-1.4-0.2-2.1c-0.1-0.4-0.2-0.8-0.3-1.1c-1.4-2.8-2.8-5.6-3.9-8.6c-0.8-2.3-1.3-4.7-0.9-7.1c0.4-2.1,1.2-4,2.4-5.8
	c2.2-3.3,4.9-6,7.7-8.7C229.6,10.2,229.7,10.2,229.8,10.1L229.8,10.1L229.8,10.1z"/>
<path class="st3" d="M221.9,46.8c-2-0.1-3.9-0.2-5.8-0.7c-1.6-0.4-3.1-1-4.4-1.9c-2-1.3-3.5-3.1-4.6-5.2c-1.1-2-2.2-4.1-3.3-6.1
	c-0.2-0.4-0.5-0.8-0.8-1.2c0,0,0.1,0,0.1-0.1c2.2-0.2,4.4-0.3,6.5,0.1c2.6,0.5,4.7,1.7,6.4,3.7c1.7,1.9,2.9,4.1,3.9,6.4
	c0.7,1.5,1.2,3.1,1.9,4.6C221.9,46.7,221.9,46.7,221.9,46.8L221.9,46.8L221.9,46.8z"/>
<path class="st3" d="M229.1,47.4c0.2-0.6,0.4-1.3,0.6-1.9c0.9-2.4,2.1-4.6,3.7-6.7c3.6-4.7,8.4-7.4,14.3-7.9c0.1,0,0.1,0,0.2,0
	c-0.3,0.7-0.5,1.4-0.8,2c-0.8,1.9-1.7,3.7-2.8,5.5c-0.9,1.5-2,2.9-3.3,4c-1.4,1.3-3,2.1-4.9,2.5c-1.9,0.3-3.7,0.8-5.4,1.6
	C230.2,46.8,229.7,47.1,229.1,47.4L229.1,47.4L229.1,47.4z"/>
<path class="st3" d="M218.9,70.9V51.4c0-0.3-0.1-0.6-0.2-1L217,47c-0.4-0.7-0.4-1.3,0-2s0.9-1,1.6-1h11.1c0.7,0,1.3,0.2,1.8,0.7
	s0.7,1.1,0.7,1.8v24.3c0,0.3,0.1,0.7,0.2,1l1.7,3.4c0.3,0.7,0.3,1.3,0,1.9c-0.4,0.7-0.9,1-1.6,1h-13.9c-0.7,0-1.2-0.3-1.6-1
	c-0.4-0.7-0.4-1.3,0-1.9l1.7-3.4C218.8,71.5,218.9,71.2,218.9,70.9L218.9,70.9L218.9,70.9L218.9,70.9z"/>
<text transform="matrix(1 0 0 1 280.1574 67.9704)" class="st0 st4 st5">me</text>
</svg>
