<svg id="Coffee_Shop-Icons" data-name="Coffee Shop-Icons" xmlns="http://www.w3.org/2000/svg" viewBox="0 0 64 64"><defs><style>.cls-1{fill:#123D44;}.cls-2{fill:none;stroke:#d8cd7e;stroke-linecap:round;stroke-linejoin:round;stroke-width:2px;}</style></defs><circle class="cls-1" cx="32.36" cy="24.23" r="13.5"/><rect class="cls-2" x="29.98" y="18.95" width="3.72" height="8.21"/><path class="cls-2" d="M29.08,52.81h5.51a1.1,1.1,0,0,1,1.1,1.1V56a0,0,0,0,1,0,0H28a0,0,0,0,1,0,0V53.91A1.1,1.1,0,0,1,29.08,52.81Z"/><line class="cls-2" x1="31.83" y1="27.57" x2="31.83" y2="29.15"/><path class="cls-2" d="M29.7,31.83a2.14,2.14,0,0,1,4.27,0"/><rect class="cls-2" x="15.78" y="32.42" width="32.11" height="2.57"/><line class="cls-2" x1="31.83" y1="35.52" x2="31.83" y2="52.76"/><path class="cls-2" d="M6.74,40.6H17.31a5.94,5.94,0,0,1,5.94,5.94V56a0,0,0,0,1,0,0H6.74a0,0,0,0,1,0,0V40.6A0,0,0,0,1,6.74,40.6Z"/><path class="cls-2" d="M6.74,40.57V16H9a1.62,1.62,0,0,1,1.62,1.61v23"/><path class="cls-2" d="M40.74,40.6H57.26a0,0,0,0,1,0,0v9.47A5.94,5.94,0,0,1,51.31,56H40.74a0,0,0,0,1,0,0V40.6A0,0,0,0,1,40.74,40.6Z" transform="translate(98 96.61) rotate(180)"/><path class="cls-2" d="M57.26,40.57V16H55a1.62,1.62,0,0,0-1.62,1.61v23"/><line class="cls-2" x1="6.87" y1="53.11" x2="22.73" y2="53.11"/><line class="cls-2" x1="41" y1="53.11" x2="56.86" y2="53.11"/></svg>