<svg id="Coffee_Shop-Icons" data-name="Coffee Shop-Icons" xmlns="http://www.w3.org/2000/svg" viewBox="0 0 64 64"><defs><style>.cls-1{fill:#123D44;}.cls-2{fill:none;stroke:#d8cd7e;stroke-linecap:round;stroke-linejoin:round;stroke-width:2px;}</style></defs><circle class="cls-1" cx="44.88" cy="19.06" r="13.5"/><path class="cls-2" d="M50.57,35.53A22.62,22.62,0,1,0,28.46,53.38a23.87,23.87,0,0,0,3.61-.28"/><line class="cls-2" x1="28.46" y1="16.28" x2="28.46" y2="19"/><line class="cls-2" x1="42.94" y1="30.76" x2="40.22" y2="30.76"/><line class="cls-2" x1="28.46" y1="45.24" x2="28.46" y2="42.52"/><line class="cls-2" x1="13.97" y1="30.76" x2="16.7" y2="30.76"/><polyline class="cls-2" points="21.8 22.56 28.46 30.76 35.11 30.76"/><path class="cls-2" d="M46.35,35.48A18.85,18.85,0,0,0,47,30.76,18.52,18.52,0,1,0,28.46,49.28,18.91,18.91,0,0,0,32,48.93"/><path class="cls-2" d="M54.13,40.74h4v4a2,2,0,0,1-2,2H53.63"/><path class="cls-2" d="M45.06,52.84h0A9,9,0,0,1,36,43.77v-3H54.13v3A9,9,0,0,1,45.06,52.84Z"/><line class="cls-2" x1="38.99" y1="55.86" x2="51.13" y2="55.86"/></svg>