<svg id="Coffee_Shop-Icons" data-name="Coffee Shop-Icons" xmlns="http://www.w3.org/2000/svg" viewBox="0 0 64 64"><defs><style>.cls-1{fill:#123D44;}.cls-2{fill:none;stroke:#d8cd7e;stroke-linecap:round;stroke-linejoin:round;stroke-width:2px;}</style></defs><circle class="cls-1" cx="19.11" cy="17.52" r="13.5"/><polyline class="cls-2" points="45.23 12.17 45.23 7.02 13.73 12.17 13.73 57.33 49.76 57.33 49.76 12.17 13.73 12.17"/><rect class="cls-2" x="17.46" y="15.89" width="28.57" height="37.71"/><line class="cls-2" x1="24.93" y1="43.78" x2="39.5" y2="43.78"/><line class="cls-2" x1="23.69" y1="47.09" x2="40.74" y2="47.09"/><ellipse class="cls-2" cx="30.53" cy="30.91" rx="4.89" ry="6.68"/><path class="cls-2" d="M33.6,25.11a3.75,3.75,0,0,1,2.75.28c2.22,1.22,2.66,4.71,1,7.72a7.24,7.24,0,0,1-4,3.52"/><path class="cls-2" d="M30.53,37.59c3.66-6.07-3.67-7.29,0-13.37"/></svg>