<svg id="Coffee_Shop-Icons" data-name="Coffee Shop-Icons" xmlns="http://www.w3.org/2000/svg" viewBox="0 0 64 64"><defs><style>.cls-1{fill:#123D44;}.cls-2{fill:none;stroke:#d8cd7e;stroke-linecap:round;stroke-linejoin:round;stroke-width:2px;}</style></defs><circle class="cls-1" cx="33.05" cy="21.33" r="13.5"/><path class="cls-2" d="M13.18,13.42H50.82a3.06,3.06,0,0,1,3.06,3.06v29a0,0,0,0,1,0,0H10.12a0,0,0,0,1,0,0v-29A3.06,3.06,0,0,1,13.18,13.42Z"/><path class="cls-2" d="M57.14,55.17H6.86a1.55,1.55,0,0,1-1.49-2l4.75-7.72H53.88l4.75,7.72A1.55,1.55,0,0,1,57.14,55.17Z"/><line class="cls-2" x1="10.12" y1="18.55" x2="53.88" y2="18.55"/><line class="cls-2" x1="14.03" y1="49.96" x2="50.42" y2="49.96"/><line class="cls-2" x1="36.66" y1="30.42" x2="48.56" y2="30.42"/><line class="cls-2" x1="36.66" y1="26.11" x2="45.9" y2="26.11"/><rect class="cls-2" x="36.66" y="34.42" width="11.9" height="4.57"/><ellipse class="cls-2" cx="22.05" cy="31.81" rx="5.71" ry="7.81"/><path class="cls-2" d="M25.64,25a4.32,4.32,0,0,1,3.21.33c2.6,1.41,3.11,5.49,1.2,9a8.5,8.5,0,0,1-4.71,4.12"/><path class="cls-2" d="M22.05,39.62c4.28-7.1-4.28-8.52,0-15.62"/></svg>