<svg id="Coffee_Shop-Icons" data-name="Coffee Shop-Icons" xmlns="http://www.w3.org/2000/svg" viewBox="0 0 64 64"><defs><style>.cls-1{fill:#123D44;}.cls-2{fill:none;stroke:#d8cd7e;stroke-linecap:round;stroke-linejoin:round;stroke-width:2px;}</style></defs><circle class="cls-1" cx="38.42" cy="20.3" r="14.48"/><path class="cls-2" d="M32.66,13.69a2.62,2.62,0,1,1-2.61,2.62A2.62,2.62,0,0,1,32.66,13.69Zm21.59,36a1.48,1.48,0,0,1-1.48,1.48H12.55a1.48,1.48,0,0,1-1.48-1.48V31.84a1.48,1.48,0,0,1,1.48-1.48H52.77a1.48,1.48,0,0,1,1.48,1.48Z"/><circle class="cls-2" cx="32.66" cy="16.31" r="2.61"/><line class="cls-2" x1="34.66" y1="18.11" x2="43.66" y2="30.36"/><line class="cls-2" x1="30.66" y1="18.11" x2="20.66" y2="30.36"/><ellipse class="cls-2" cx="19.29" cy="40.77" rx="3.42" ry="4.04"/><path class="cls-2" d="M25.93,44.81V36.74h2.79a2.17,2.17,0,1,1,0,4.34H25.93"/><polyline class="cls-2" points="38.81 44.81 33.84 44.81 33.84 36.73 38.81 36.73"/><line class="cls-2" x1="33.84" y1="40.46" x2="38.19" y2="40.46"/><polyline class="cls-2" points="42.05 44.81 42.05 36.73 42.37 36.73 47.95 44.81 48.26 44.81 48.26 36.73"/></svg>