<svg id="Coffee_Shop-Icons" data-name="Coffee Shop-Icons" xmlns="http://www.w3.org/2000/svg" viewBox="0 0 64 64"><defs><style>.cls-1{fill:#123D44;}.cls-2{fill:none;stroke:#d8cd7e;stroke-linecap:round;stroke-linejoin:round;stroke-width:2px;}</style></defs><circle class="cls-1" cx="42.82" cy="34.5" r="14.48"/><path class="cls-2" d="M46.91,17.13,44,53.29a1,1,0,0,1-1,.92H21.05a1,1,0,0,1-1-.92L17.09,17.11"/><line class="cls-2" x1="46.08" y1="22.96" x2="17.92" y2="22.96"/><line class="cls-2" x1="19.37" y1="45.1" x2="44.14" y2="45.1"/><path class="cls-2" d="M48,13.83H16a1,1,0,0,0-1,1v1a1,1,0,0,0,1,1H48a1,1,0,0,0,1-1v-1A1,1,0,0,0,48,13.83Z"/><path class="cls-2" d="M45,13.83l-1.77-3.41a1,1,0,0,0-.94-.63H21.72a1,1,0,0,0-.94.63L19,13.83"/><ellipse class="cls-2" cx="30.53" cy="34" rx="4.89" ry="6.68"/><path class="cls-2" d="M33.6,28.2a3.76,3.76,0,0,1,2.75.29c2.22,1.21,2.66,4.7,1,7.71a7.2,7.2,0,0,1-4,3.52"/><path class="cls-2" d="M30.53,40.68c3.66-6.07-3.67-7.29,0-13.36"/></svg>