<svg id="Coffee_Shop-Icons" data-name="Coffee Shop-Icons" xmlns="http://www.w3.org/2000/svg" viewBox="0 0 64 64"><defs><style>.cls-1{fill:#123D44;}.cls-2{fill:none;stroke:#d8cd7e;stroke-linecap:round;stroke-linejoin:round;stroke-width:2px;}</style></defs><circle class="cls-1" cx="46.54" cy="19.69" r="13.5"/><path class="cls-2" d="M32.07,47a8.39,8.39,0,0,1-8.39-8.38v-5a.84.84,0,0,1,.84-.84H39.61a.83.83,0,0,1,.84.84v5A8.39,8.39,0,0,1,32.07,47Z"/><path class="cls-2" d="M41,34.68h2.62v4.07a1.81,1.81,0,0,1-1.8,1.8H41"/><path class="cls-2" d="M39.18,20.88a15.92,15.92,0,0,0-14.55,0"/><path class="cls-2" d="M37.35,24.74a11.73,11.73,0,0,0-10.89,0"/><path class="cls-2" d="M35.52,28.61a7.49,7.49,0,0,0-7.23,0"/><line class="cls-2" x1="17.88" y1="48.01" x2="46.18" y2="48.01"/><circle class="cls-2" cx="32" cy="32" r="21.5"/><circle class="cls-2" cx="32" cy="32" r="25.79"/></svg>